
	<svg xmlns="http://www.w3.org/2000/svg" xmlns:xlink="http://www.w3.org/1999/xlink" version="1.1" width="512" height="512" viewBox="0 0 100 100">


		<defs>
			<g id="background">
<path fill="url(#background-gradient)" stroke="none" d=" M 100 18.4 Q 100 10.8 94.6 5.4 89.05 0 81.6 0 L 18.4 0 Q 10.8 0 5.4 5.4 0 10.8 0 18.4 L 0 81.6 Q 0 89.05 5.4 94.6 10.8 100 18.4 100 L 81.6 100 Q 89.05 100 94.6 94.6 100 89.05 100 81.6 L 100 18.4 Z"/>
</g><g id="middle-1">
<path fill="#000000" fill-opacity="0.4" stroke="none" d=" M 100 75.4 Q 99.8 82.4 94.6 87.75 89.2 93.15 81.6 93.15 L 18.4 93.15 Q 10.8 93.15 5.4 87.75 0.2 82.5 0 75.4 L 0 81.65 Q 0 89.2 5.4 94.6 10.8 100 18.4 100 L 81.6 100 Q 89.2 100 94.6 94.6 100 89.1 100 81.65 L 100 75.4 Z"/>
</g><mask id="mask">
<path fill="#FFFFFF" stroke="none" d=" M 100 18.4 Q 100 10.8 94.6 5.4 89.05 0 81.6 0 L 18.4 0 Q 10.8 0 5.4 5.4 0 10.8 0 18.4 L 0 75.4 Q 0.2 82.5 5.4 87.75 10.8 93.15 18.4 93.15 L 81.6 93.15 Q 89.2 93.15 94.6 87.75 99.8 82.4 100 75.4 L 100 18.4 Z"/>
</mask>
			
	<linearGradient id="background-gradient" x1="0" y1="0" y2="1" x2="0" >
		<stop stop-color="#fff" offset="0%"/>
		<stop stop-color="#000" offset="100%"/>
	</linearGradient>

			
			
			<g transform="scale(0.3588512554537331) translate(-11 5.944993019104004)" id="picture">
    <path stroke="#none" stroke-width="1.5" stroke-opacity="null" d="M11.667 77.333h278v100h-278z"/>
    <path fill="#fff" stroke="#none" stroke-width="1.5" d="M17.5 79.333h270v96h-270z"/>
    <path fill="#FFAFCC" stroke="#none" stroke-width="1.5" stroke-opacity="null" d="M11 76.969h76.667v100H11z"/>
    <path fill="#ea18f9" stroke="#none" stroke-width="1.5" stroke-opacity="null" opacity=".5" d="M145.667 96.969c-1.334 20-14 36-14.334 55.698C153 162.302 165 160.302 164.667 160c.333.302 27 8.969 26.666 8.667.334.302 29-5.698 28.667-6 .333.302 14.333-3.698 14-4 .333.302 15-7.698 14.667-8 .333.302 13.666-19.032 13.333-19.334.333.302.333-11.03 0-11.333.333.302-18.333-15.698-18.667-16 .334.302-37 .302-37.333 0 .333.302-11 21.635-11.333 21.333.333.302-26.334-3.03-26.667-3.333.333.302 12.333-17.698 12-18 .333.302 18.333-5.698 18-6 .333.302 19.667.302 19.333 0 .334.302 23.667-1.031 23.334-1.333.333.302 14.333-.365 14-.667.333.302-1.667-7.031-2-7.333.333.302-107 .302-107.334 0"/>
    <path stroke="#none" stroke-width="1.5" stroke-opacity="null" d="M30.53 80.179l51.333 88.912-10.392 6L20.137 86.18z"/>
    <path stroke="#none" stroke-width="1.5" stroke-opacity="null" d="M19.47 167.425l51.333-88.912 10.393 6-51.334 88.912z"/>
    <path d="M95.746 53.356c0-2.889-1.05-5.252-3.283-6.828-2.232-1.575-6.04-3.02-11.554-4.201-5.514-1.182-9.847-2.626-12.998-4.202s-5.646-3.545-7.09-5.908c-1.576-2.232-2.364-4.99-2.364-8.01 0-5.251 2.232-9.584 6.565-13.13s9.979-5.382 16.806-5.382c7.222 0 12.999 1.838 17.463 5.514 4.464 3.677 6.696 8.403 6.696 14.18H95.09c0-3.02-1.313-5.514-3.807-7.615-2.495-2.1-5.646-3.282-9.454-3.282-3.939 0-6.959.919-9.19 2.626-2.233 1.706-3.283 3.939-3.283 6.696 0 2.626 1.05 4.595 3.151 5.908 2.1 1.313 5.777 2.626 11.16 3.808 5.384 1.182 9.717 2.626 13.13 4.333 3.414 1.707 5.777 3.676 7.484 6.04 1.576 2.363 2.364 5.251 2.364 8.665 0 5.646-2.232 10.241-6.828 13.655-4.464 3.414-10.372 5.12-17.594 5.12-5.12 0-9.585-.918-13.392-2.757-3.94-1.838-6.959-4.332-9.191-7.484-2.232-3.282-3.283-6.696-3.283-10.503h10.767c.131 3.676 1.707 6.564 4.333 8.665 2.757 2.101 6.302 3.151 10.766 3.151 4.07 0 7.353-.787 9.848-2.494 2.363-1.576 3.676-3.808 3.676-6.565zm133 0c0-2.889-1.05-5.252-3.283-6.828-2.232-1.575-6.04-3.02-11.554-4.201-5.515-1.182-9.847-2.626-12.999-4.202s-5.645-3.545-7.09-5.908c-1.575-2.232-2.363-4.99-2.363-8.01 0-5.251 2.232-9.584 6.565-13.13S208 5.696 214.828 5.696c7.221 0 12.998 1.838 17.463 5.514 4.464 3.677 6.696 8.403 6.696 14.18h-10.898c0-3.02-1.313-5.514-3.808-7.615-2.494-2.1-5.645-3.282-9.453-3.282-3.939 0-6.959.919-9.19 2.626-2.233 1.706-3.283 3.939-3.283 6.696 0 2.626 1.05 4.595 3.15 5.908 2.102 1.313 5.778 2.626 11.161 3.808s9.716 2.626 13.13 4.333c3.414 1.707 5.777 3.676 7.484 6.04 1.576 2.363 2.363 5.251 2.363 8.665 0 5.646-2.232 10.241-6.827 13.655-4.464 3.414-10.373 5.12-17.594 5.12-5.12 0-9.585-.918-13.393-2.757-3.938-1.838-6.958-4.332-9.19-7.484-2.232-3.282-3.283-6.696-3.283-10.503h10.767c.13 3.676 1.706 6.564 4.332 8.665 2.758 2.101 6.303 3.151 10.767 3.151 4.07 0 7.353-.787 9.847-2.494 2.364-1.576 3.677-3.808 3.677-6.565zm-80.556 3.345L163.868 8.15h11l-22.632 63.219h-8.218l-22.886-63.22h11l16.058 48.552z"/>
    <path fill="#f9f9f9" d="M216.658 261v-75.741h21.359c6.513 0 12.421 1.515 17.42 4.393 4.999 2.878 8.938 7.12 11.664 12.422 2.727 5.301 4.09 11.512 4.242 18.48v4.848c0 7.12-1.364 13.33-4.09 18.783-2.727 5.302-6.665 9.544-11.816 12.422-4.999 2.878-11.058 4.393-17.875 4.393h-20.904zm9.998-67.561v59.381h10.452c7.725 0 13.633-2.424 18.026-7.12 4.242-4.847 6.362-11.664 6.362-20.45v-4.393c0-8.634-1.969-15.3-6.059-20.147-3.938-4.847-9.695-7.271-17.117-7.271h-11.664zM121.73 261.082c-6.817 0-12.481-2.202-16.782-6.713-4.195-4.51-6.398-10.594-6.398-18.146v-1.573c0-5.035.944-9.44 2.832-13.426 1.888-3.986 4.615-7.028 8.077-9.23s7.132-3.357 11.223-3.357c6.608 0 11.643 2.203 15.314 6.503s5.454 10.49 5.454 18.566v3.566h-34.299c.105 5.035 1.573 9.02 4.405 12.063 2.832 3.042 6.294 4.615 10.594 4.615 3.042 0 5.665-.63 7.762-1.888 2.098-1.259 3.986-2.937 5.56-4.93l5.244 4.09c-4.196 6.609-10.489 9.86-18.985 9.86zm-1.048-45.312c-3.461 0-6.398 1.258-8.81 3.776-2.413 2.517-3.882 6.083-4.406 10.699h25.383v-.63c-.21-4.405-1.468-7.762-3.566-10.174-2.098-2.518-5.035-3.671-8.601-3.671zM40.63 261.067v-74.43h20.99c6.4 0 12.206 1.489 17.119 4.317 4.912 2.828 8.783 6.996 11.462 12.206 2.68 5.21 4.02 11.314 4.168 18.161v4.764c0 6.996-1.34 13.1-4.02 18.459-2.679 5.21-6.549 9.378-11.61 12.206-4.913 2.828-10.867 4.317-17.566 4.317H40.631zm9.825-66.392v58.354h10.272c7.592 0 13.397-2.382 17.714-6.997 4.168-4.763 6.252-11.462 6.252-20.096v-4.317c0-8.485-1.935-15.035-5.954-19.798-3.87-4.764-9.527-7.146-16.821-7.146H50.455zM203.863 261h-9.726v-73.684h9.726V261z"/>
    <path fill="#f9f9f9" stroke="#none" stroke-width="1.5" stroke-opacity="null" d="M155.5 226h26v10h-26z"/>
</g>
			
		</defs>

		

			<use xlink:href="#background" fill="url(#background-gradient)" />

		<use xlink:href="#middle-1" />

			<g mask="url(#mask)">
				<g transform="
				        translate(
                                50 45
)
                            translate(0 0)  scale(0.875)  
                            translate(
                                -50 -45
)">
						<use xlink:href="#picture"   />
				</g>
			</g>

		



	</svg>
